<svg width="17" height="16" viewBox="0 0 17 16" fill="none" xmlns="http://www.w3.org/2000/svg">
<path d="M8.36622 7.26667C6.85289 6.87333 6.36622 6.46667 6.36622 5.83333C6.36622 5.10667 7.03956 4.6 8.16622 4.6C9.35289 4.6 9.79289 5.16667 9.83289 6L11.3062 6C11.2596 4.85333 10.5596 3.8 9.16622 3.46V2L7.16622 2L7.16622 3.44C5.87289 3.72 4.83289 4.56 4.83289 5.84667C4.83289 7.38667 6.10622 8.15333 7.96622 8.6C9.63289 9 9.96622 9.58667 9.96622 10.2067C9.96622 10.6667 9.63956 11.4 8.16622 11.4C6.79289 11.4 6.25289 10.7867 6.17956 10H4.71289C4.79289 11.46 5.88622 12.28 7.16622 12.5533V14H9.16622L9.16622 12.5667C10.4662 12.32 11.4996 11.5667 11.4996 10.2C11.4996 8.30667 9.87956 7.66 8.36622 7.26667Z" fill="#9095A1"/>
</svg>
