<svg width="16" height="16" viewBox="0 0 16 16" fill="none" xmlns="http://www.w3.org/2000/svg">
<path d="M11.7143 6.85709C13.1344 6.85709 14.2857 5.70582 14.2857 4.28566C14.2857 2.8655 13.1344 1.71423 11.7143 1.71423C10.2941 1.71423 9.14282 2.8655 9.14282 4.28566C9.14282 5.70582 10.2941 6.85709 11.7143 6.85709Z" fill="#9095A1"/>
<path d="M4.28578 6.85709C5.70595 6.85709 6.85721 5.70582 6.85721 4.28566C6.85721 2.8655 5.70595 1.71423 4.28578 1.71423C2.86562 1.71423 1.71436 2.8655 1.71436 4.28566C1.71436 5.70582 2.86562 6.85709 4.28578 6.85709Z" fill="#9095A1"/>
<path d="M11.7143 14.2857C13.1344 14.2857 14.2857 13.1344 14.2857 11.7143C14.2857 10.2941 13.1344 9.14282 11.7143 9.14282C10.2941 9.14282 9.14282 10.2941 9.14282 11.7143C9.14282 13.1344 10.2941 14.2857 11.7143 14.2857Z" fill="#9095A1"/>
<path d="M4.28578 14.2857C5.70595 14.2857 6.85721 13.1344 6.85721 11.7143C6.85721 10.2941 5.70595 9.14282 4.28578 9.14282C2.86562 9.14282 1.71436 10.2941 1.71436 11.7143C1.71436 13.1344 2.86562 14.2857 4.28578 14.2857Z" fill="#9095A1"/>
</svg>
